<svg width="334" height="77" viewBox="0 0 334 77" fill="none" xmlns="http://www.w3.org/2000/svg">
<path d="M30.0997 60.2064L0.363961 61.1248L6.76461 58.5416L8.77378 34.0871L0.938009 30.9873L29.5831 29.9253L20.3983 33.1686L23.9861 58.312L30.0997 60.2064ZM26.9137 23.295C26.9137 24.5962 25.9091 25.6773 23.9 26.5384C21.8908 27.3803 19.2693 27.8013 16.0355 27.8013C12.8017 27.8013 10.1706 27.3803 8.14232 26.5384C6.13315 25.6773 5.12857 24.5962 5.12857 23.295C5.12857 21.9938 6.14272 20.9127 8.17103 20.0516C10.1993 19.1906 12.8208 18.76 16.0355 18.76C19.2693 18.76 21.8908 19.1906 23.9 20.0516C25.9091 20.9127 26.9137 21.9938 26.9137 23.295ZM73.5552 39.6841L70.484 59.6036L69.3072 51.4521C66.5327 54.7433 63.4711 57.25 60.1225 58.9721C56.793 60.6943 53.3104 61.5554 49.6748 61.5554C47.2829 61.5554 44.958 61.0674 42.7001 60.0915C40.4421 59.0965 38.4043 57.6614 36.5864 55.7862C34.4242 53.6048 32.7595 51.1651 31.5922 48.4671C30.4441 45.7499 29.8701 42.9753 29.8701 40.1433C29.8701 36.2207 30.7024 32.6424 32.3672 29.4086C34.0319 26.1557 36.3951 23.5055 39.4567 21.458C41.5041 20.0995 43.7047 19.0853 46.0583 18.4156C48.431 17.7459 50.9951 17.411 53.7505 17.411C56.2572 17.411 58.5917 17.8033 60.7539 18.5878C62.9162 19.3723 64.9445 20.5683 66.8388 22.1756L68.5036 17.411L71.4312 33.1112C70.1683 31.2743 68.6758 29.887 66.9536 28.9494C65.2315 27.9926 63.3754 27.5143 61.3854 27.5143C59.0892 27.5143 57.2426 28.1936 55.8458 29.5521C54.4489 30.8916 53.7505 32.6616 53.7505 34.8621C53.7505 37.1966 54.6212 39.1579 56.3624 40.7461C58.1037 42.3152 60.2851 43.0997 62.9066 43.0997C64.5139 43.0997 66.1882 42.8222 67.9295 42.2673C69.6708 41.6933 71.546 40.8322 73.5552 39.6841ZM127.257 19.1044L119.852 22.9219L122.148 54.6668L127.143 57.7953L98.2393 58.8573L102.688 55.2695L103.176 44.6209L95.0533 45.8551V58.4268L99.3587 61.2683L74.9616 59.5462L78.9513 56.7334L82.3094 22.1756L75.5357 20.109L97.0051 17.0379L92.6997 20.6831L94.1061 34.0871L101.597 36.8713L103.521 21.7451L99.8753 18.2721L127.257 19.1044ZM152.946 25.2755C152.391 26.0983 151.97 26.9689 151.683 27.8874C151.396 28.8059 151.253 29.7435 151.253 30.7002C151.253 32.4224 151.903 33.9149 153.204 35.1778C154.525 36.4216 156.084 37.0435 157.883 37.0435C159.299 37.0435 160.638 36.6608 161.901 35.8954C163.183 35.13 164.102 34.1541 164.657 32.9677C163.279 30.595 161.586 28.7485 159.576 27.4282C157.586 26.1078 155.376 25.3903 152.946 25.2755ZM174.76 40.2582C174.76 42.3247 174.502 44.2574 173.985 46.056C173.468 47.8356 172.684 49.4908 171.631 51.0216C169.412 54.2745 166.36 56.8673 162.475 58.7999C158.591 60.7134 154.477 61.6702 150.133 61.6702C147.818 61.6702 145.637 61.3736 143.589 60.7804C141.561 60.1872 139.686 59.307 137.963 58.1398C134.902 56.0732 132.529 53.4995 130.845 50.4188C129.161 47.319 128.319 43.9799 128.319 40.4017C128.319 37.6654 128.846 35.063 129.898 32.5946C130.951 30.1262 132.481 27.9065 134.491 25.9356C136.959 23.4864 139.829 21.6016 143.101 20.2812C146.392 18.9418 149.837 18.2721 153.434 18.2721C155.692 18.2721 157.797 18.5591 159.749 19.1331C161.72 19.6881 163.528 20.5204 165.173 21.6303C168.12 23.6203 170.455 26.2992 172.177 29.6669C173.899 33.0156 174.76 36.546 174.76 40.2582ZM239.742 22.2904L233.916 24.9884L223.21 56.5611L231.16 58.599L209.059 62.7322L202.458 45.7977L195.713 60.9526L178.606 60.0341L184.433 57.6231L179.783 23.7542L174.502 21.2858L204.41 18.6452L197.521 22.8645L193.302 48.0939L207.05 28.0309L215.862 47.8643L217.154 23.4672L211.241 20.3961L239.742 22.2904Z" fill="black"/>
<path d="M323.421 5.95898C323.421 14.3034 265.316 16.8346 265.925 7.35946C252.497 56.3677 278.91 66.5924 294.956 66.5924C311.003 66.5924 339.314 58.2201 323.421 5.95898Z" fill="#EA5A47"/>
<path d="M332 2C323.465 11.909 313.297 15.4763 295.261 15.4735C277.224 15.4749 267.055 11.909 258.522 2" stroke="black" stroke-width="2.67022" stroke-miterlimit="10" stroke-linecap="round" stroke-linejoin="round"/>
<path d="M332 2C323.465 11.909 313.297 15.4763 295.261 15.4735C277.224 15.4749 267.055 11.909 258.522 2" stroke="black" stroke-width="2.67022" stroke-miterlimit="10" stroke-linecap="round" stroke-linejoin="round"/>
<path d="M324.988 14.8711C337.678 61.3746 312.003 68.5884 295.956 68.5884C279.91 68.5884 254.234 61.3732 266.925 14.8711" stroke="black" stroke-width="2.67022" stroke-miterlimit="10" stroke-linecap="round" stroke-linejoin="round"/>
<path d="M295.957 68.5742V32.166" stroke="black" stroke-width="2.67022" stroke-miterlimit="10" stroke-linecap="round" stroke-linejoin="round"/>
</svg>
